<svg width="2244" height="724" viewBox="0 0 2244 724" fill="none" xmlns="http://www.w3.org/2000/svg">
<g clip-path="url(#clip0_14_333)">
<path d="M1743.37 707.07H1534.55L1662.76 12.63H1865.75L2243.57 707.07H2041.55L1990.07 604.12H1757.94L1743.37 707.07ZM1850.21 327.31C1833.7 293.32 1808.45 237.96 1808.45 237.96H1806.51C1806.51 237.96 1801.65 293.32 1796.8 327.31L1777.38 466.2H1920.15L1850.22 327.31H1850.21Z" fill="black"/>
<path d="M1197.54 723.58C1041.17 723.58 897.42 638.11 862.46 448.72H1066.42C1082.93 521.56 1132.46 558.47 1196.57 558.47C1283.98 558.47 1315.06 488.54 1315.06 409.87C1315.06 294.29 1264.55 166.09 1144.12 166.09C1073.22 166.09 1042.14 209.8 1041.17 270.01H840.12C844 176.77 875.08 101.98 940.16 53.42C987.75 17.48 1051.85 0 1141.21 0C1370.42 0 1519.03 191.34 1519.03 414.72C1519.03 618.68 1388.88 723.58 1197.55 723.58H1197.54Z" fill="black"/>
<path d="M868.29 707.07H692.49L607.99 271.95H606.05L574.97 707.07H428.31L232.12 271.95H230.18L314.68 707.07H134.03L0 12.63H265.15L442.89 401.13H444.83L476.88 12.63H734.26L868.29 707.07Z" fill="black"/>
</g>
<defs>
<clipPath id="clip0_14_333">
<rect width="2243.56" height="723.58" fill="white"/>
</clipPath>
</defs>
</svg>
