<svg width="823" height="425" viewBox="0 0 823 425" fill="none" xmlns="http://www.w3.org/2000/svg">
<path d="M529.182 415.29H406.842L481.955 7.41809H600.88L822.231 415.29H703.875L673.715 354.823H537.718L529.182 415.29ZM591.776 192.242C582.103 172.278 567.31 139.763 567.31 139.763H566.173C566.173 139.763 563.326 172.278 560.485 192.242L549.107 273.817H632.751L591.782 192.242H591.776Z" fill="black"/>
<path d="M209.4 424.987C117.788 424.987 33.57 374.787 13.0882 263.551H132.581C142.254 306.332 171.272 328.011 208.831 328.011C260.042 328.011 278.25 286.939 278.25 240.733C278.25 172.848 248.658 97.5511 178.103 97.5511C136.565 97.5511 118.356 123.224 117.788 158.587H0C2.27315 103.824 20.4818 59.8968 58.6099 31.3756C86.4911 10.2667 124.045 0 176.398 0C310.684 0 397.749 112.381 397.749 243.581C397.749 363.375 321.493 424.987 209.4 424.987Z" fill="black"/>
</svg>
