<svg width="22" height="23" viewBox="0 0 22 23" fill="none" xmlns="http://www.w3.org/2000/svg">
<path d="M11.326 22.9867C6.37092 22.9867 1.81574 20.2715 0.707915 14.2549H7.17104C7.69421 16.5689 9.26373 17.7414 11.2953 17.7414C14.0651 17.7414 15.05 15.5199 15.05 13.0207C15.05 9.34899 13.4494 5.27634 9.63321 5.27634C7.38652 5.27634 6.40165 6.66492 6.37092 8.57767H0C0.12295 5.61562 1.10782 3.2397 3.17009 1.69704C4.67813 0.555304 6.70934 0 9.541 0C16.8043 0 21.5134 6.07848 21.5134 13.1748C21.5134 19.6542 17.3889 22.9867 11.326 22.9867Z" fill="black"/>
</svg>
