<svg width="543" height="201" viewBox="0 0 543 201" fill="none" xmlns="http://www.w3.org/2000/svg">
<path d="M437.372 128.168C430.319 128.168 427.095 122.928 427.095 115.069C427.095 103.38 441.806 79.1979 454.098 63.8823C455.308 62.0686 456.517 61.2625 457.927 61.2625C462.764 61.2625 461.152 66.502 463.771 69.7264C465.384 72.1446 466.996 74.3614 468.406 76.9811C468.809 76.5781 469.212 76.1751 469.616 75.9735C477.878 70.5325 486.745 66.502 499.844 62.6731C500.045 62.6731 500.448 62.4716 500.65 62.4716C501.657 58.2397 502.665 54.0077 504.076 49.7758C505.083 46.1484 506.494 44.3347 508.509 44.3347C508.912 44.3347 509.315 44.3347 509.718 44.5362C511.532 45.1408 512.338 47.3575 512.338 48.7682C512.338 49.5742 512.137 50.5818 511.733 51.5895C503.874 75.369 499.844 109.023 499.844 127.765C499.844 131.593 499.038 133.609 497.224 133.609C495.209 133.609 494.201 131.996 494 128.772C493.798 125.951 493.798 123.13 493.798 120.308C493.798 114.464 494 108.217 494.604 101.97C487.349 104.993 480.296 108.822 473.243 113.457C470.623 115.27 468.608 116.076 467.197 116.076C466.391 116.076 465.787 115.673 465.384 115.069C465.182 114.867 464.981 114.464 464.981 113.86C464.981 112.852 465.585 110.635 469.011 108.418C477.676 102.574 486.342 98.5439 495.209 94.715C496.216 86.0496 497.627 76.9811 499.441 68.3157C491.178 71.3385 481.304 76.1751 472.638 81.6161C471.631 82.4222 470.623 82.8253 469.817 83.0268C469.817 100.156 451.277 128.168 437.372 128.168ZM522.011 133.004C521.81 130.787 521.81 128.571 521.81 126.152C521.81 117.487 522.414 105.194 524.631 89.0724C526.848 72.9507 529.87 56.829 533.901 44.1332C534.908 40.5058 536.521 38.6921 538.536 38.6921C538.939 38.6921 539.342 38.6921 539.745 38.8936C541.559 39.4982 542.566 41.7149 542.566 43.1255C542.566 43.9316 542.365 44.9392 541.962 45.9468C532.893 69.3233 528.46 113.053 527.855 131.996C527.855 135.825 527.049 137.841 525.235 137.841C523.22 137.841 522.213 136.228 522.011 133.004ZM462.965 83.0268C462.965 78.1903 460.749 75.772 457.726 75.772C450.471 75.772 439.992 98.3424 436.163 106.605C434.551 109.829 432.737 121.114 437.977 121.114C448.053 121.114 462.965 94.1105 462.965 83.0268Z" fill="#222222"/>
<path d="M295.363 153.156C302.819 150.133 316.321 146.708 331.636 143.685C333.047 129.981 335.465 117.89 338.891 104.187C340.302 99.5515 342.116 98.7455 343.728 98.7455C343.929 98.7455 344.332 98.7455 344.735 98.947C346.549 99.5515 347.557 101.567 347.557 103.179C347.557 103.985 347.355 104.993 346.952 106C343.123 117.89 340.705 129.981 339.093 142.073C363.88 137.236 391.891 134.415 400.355 134.415H403.177C406.199 134.616 408.618 134.818 408.618 136.631C408.618 138.445 407.005 139.251 403.983 139.251C385.846 139.251 317.933 152.552 298.99 160.814C297.378 161.62 295.967 162.023 294.557 162.023C293.75 162.023 291.131 162.225 290.526 159.202V158.396C290.526 156.179 292.138 154.567 295.363 153.156ZM318.941 90.6846C321.359 77.7872 324.986 64.4868 328.412 53.8062C329.218 51.3879 330.427 50.1788 332.039 50.1788C332.443 50.1788 332.846 50.1788 333.249 50.3803C334.458 50.5819 335.062 51.5895 335.062 53.0001C335.062 53.6047 334.861 54.6123 334.659 55.6199C331.435 65.8975 328.614 77.1827 326.397 88.2663C340.906 83.4298 365.694 78.1903 379.195 76.5781H380.606C382.823 76.5781 383.83 77.1827 384.032 78.1903V78.5933C384.032 79.8024 382.823 80.6085 380.405 81.2131C365.29 84.4374 340.906 90.2816 325.591 95.7226C324.18 96.3272 322.971 96.5287 321.963 96.5287C320.15 96.5287 318.739 95.3196 318.739 92.9013C318.739 92.2968 318.739 91.4907 318.941 90.6846ZM373.754 33.4525C354.408 38.4906 335.465 44.1332 316.119 50.5819C314.709 51.1864 313.5 51.3879 312.492 51.3879C312.29 51.3879 310.678 51.5895 310.074 49.7758C309.872 49.5742 309.872 49.1712 309.872 48.9697C309.872 47.9621 310.074 46.1484 314.709 44.5362C333.45 37.886 353.804 32.0419 372.142 28.0115C373.15 27.8099 374.157 27.6084 374.762 27.6084C377.583 27.6084 378.188 29.2206 378.188 29.8252C378.188 31.2358 376.979 32.6465 373.754 33.4525Z" fill="#222222"/>
<path d="M235.471 117.487C235.27 115.27 235.27 113.053 235.27 110.635C235.27 101.97 235.874 89.677 238.091 73.5553C240.308 57.4336 243.331 41.3119 247.361 28.6161C248.369 24.9887 249.981 23.175 251.996 23.175C252.399 23.175 252.802 23.175 253.205 23.3765C255.019 23.9811 256.027 26.1978 256.027 27.6085C256.027 28.4145 255.825 29.4221 255.422 30.4298C251.593 39.9013 248.772 52.3956 246.555 65.2929C256.833 61.464 265.901 55.6199 275.776 51.388C277.388 50.7834 278.395 50.7834 278.395 50.7834C279 50.7834 279.605 51.1864 279.806 51.791C280.008 51.9925 280.008 52.1941 280.008 52.3956C280.008 53.0001 280.008 54.0077 277.388 55.6199L244.943 75.772C242.726 91.8938 241.517 107.008 241.315 116.479C241.315 120.308 240.509 122.323 238.696 122.323C236.68 122.323 235.673 120.711 235.471 117.487ZM183.882 164.643C184.486 152.552 186.502 137.639 188.92 125.548C189.524 121.719 191.137 119.704 193.555 119.704H194.361C196.175 120.107 197.182 121.517 197.182 123.734C197.182 124.742 196.981 125.749 196.779 126.757C194.563 136.631 191.741 153.559 191.741 163.635C209.677 152.753 234.665 146.103 257.236 142.274C258.243 142.073 259.049 142.073 259.855 142.073C261.468 142.073 262.274 142.677 262.475 143.685V144.088C262.475 145.7 261.266 146.708 258.646 147.312C235.471 152.955 213.304 159.403 195.57 170.084C192.95 171.696 190.734 172.502 188.92 172.502C187.308 172.502 183.882 172.502 183.882 165.852V164.643ZM193.555 46.1484C180.658 50.1788 166.954 54.4108 153.251 58.6427C152.243 59.0458 151.235 59.2473 150.429 59.2473C148.817 59.2473 147.81 58.4412 147.608 56.829V56.023C147.608 54.4108 148.817 53.0001 151.437 51.9925C165.342 46.9545 179.247 43.5286 193.756 38.8936C195.57 38.2891 196.981 38.0876 198.19 38.0876C200.407 38.0876 201.616 38.8936 201.616 41.9165C201.616 43.1256 201.414 44.7378 201.011 46.5515C196.779 65.696 192.346 85.8481 187.711 105.799C186.905 108.822 185.494 110.434 183.68 110.434H183.076C181.665 110.232 181.262 108.62 181.262 107.209C181.262 106.605 181.464 105.597 181.665 104.59C185.494 83.6314 189.323 68.7188 193.555 46.1484Z" fill="#222222"/>
<path d="M72.1446 150.133C86.8557 143.685 96.3272 140.863 114.867 137.639C116.278 137.438 117.89 137.035 118.898 137.035C119.905 137.035 123.533 137.236 123.533 140.057C123.533 142.476 121.316 144.491 119.704 146.103C102.977 162.829 94.5135 173.913 81.0116 192.251C110.635 184.191 130.183 181.571 152.149 181.571C155.171 181.571 156.582 182.175 156.582 183.586C156.582 184.594 155.776 185.601 152.552 185.601C131.996 186.206 94.5135 193.057 76.5781 200.111C75.5705 200.514 74.5629 200.715 73.7568 200.715C71.3386 200.715 70.734 199.103 70.734 197.692C70.734 196.685 71.137 195.677 72.1446 194.468C88.2664 171.898 96.3272 161.822 113.658 143.886C96.1257 147.514 85.042 150.536 66.502 159.202C65.4944 159.806 64.4868 160.008 63.6807 160.008C62.0686 160.008 60.6579 158.799 60.6579 157.187C60.6579 156.179 61.2625 154.768 62.2701 153.156C64.0838 150.133 66.9051 147.111 69.1218 144.088C78.9964 130.989 89.677 118.495 101.164 106.605C90.6846 107.612 65.4944 117.084 56.6275 122.122C56.0229 122.525 55.2168 122.726 54.6123 122.726C53.8062 122.726 51.791 122.323 51.791 119.704C51.791 118.293 52.5971 117.285 54.0077 116.479C64.8899 110.031 92.9013 101.164 105.799 99.5515C106.403 99.35 107.008 99.35 107.612 99.35C109.628 99.35 111.038 99.9546 111.643 100.962C111.844 101.567 112.046 101.97 112.046 102.574C112.046 103.582 111.441 104.791 110.434 106.202C96.1257 120.913 82.0192 137.236 72.1446 150.133ZM17.5324 51.9925C17.5324 39.6997 30.6312 25.3917 42.7225 16.1217C45.1408 14.308 47.559 12.6958 50.5819 12.6958C54.6123 12.6958 62.0686 22.9734 62.0686 28.4145C62.0686 38.6921 33.8556 60.0534 24.3841 60.0534C18.943 60.0534 17.5324 56.6275 17.5324 51.9925ZM101.768 86.2511C101.567 84.0344 101.567 82.0192 101.567 79.8024C86.2511 83.6314 73.3538 87.6618 58.0381 93.3044C56.829 93.7074 55.8214 93.9089 55.0153 93.9089C53.6047 93.9089 52.7986 93.3044 52.3955 92.0953C52.194 91.8937 52.194 91.4907 52.194 91.2892C52.194 90.2816 52.3955 88.8709 55.8214 87.4603C70.5325 82.0192 84.8405 77.7872 101.567 73.7568C101.567 51.1864 104.791 23.578 109.628 5.44108C111.038 0.806087 112.852 0 114.464 0C114.666 0 115.069 -4.80464e-07 115.472 0.201518C117.285 0.806086 118.293 2.8213 118.293 4.43347C118.293 5.23956 118.092 6.24716 117.688 7.25477C111.24 27.6084 108.217 66.502 107.612 85.2435C107.612 89.0724 106.806 91.0876 104.993 91.0876C102.977 91.0876 101.97 89.4755 101.768 86.2511ZM24.5856 110.232C25.5932 102.373 27.8099 91.0876 30.0267 82.0192C22.1673 85.042 14.308 88.6694 6.04564 93.3044C5.03803 93.9089 4.03043 94.1105 3.02282 94.1105C2.8213 94.1105 1.41065 94.312 0.604563 92.9013C0.201521 92.4983 0 91.8937 0 91.2892C0 90.6846 -3.84371e-07 89.0724 2.41826 87.4603C17.5324 77.1827 49.5743 67.7112 71.7416 65.0914H73.3538C75.9735 65.0914 77.1827 65.8975 77.1827 67.7112C77.1827 69.5249 75.772 70.5325 73.1523 70.9355C60.2549 73.1522 49.5743 75.369 38.4906 79.1979C35.8708 88.2663 33.4525 102.171 31.8404 110.232C31.0343 114.061 29.6236 115.875 27.8099 115.875C25.5932 115.875 24.3841 114.263 24.3841 111.844C24.3841 111.24 24.3841 110.837 24.5856 110.232ZM48.3651 22.1673C41.7149 22.1673 24.7871 43.9316 24.7871 49.5743C24.7871 51.1864 25.1902 52.3955 27.8099 52.3955C32.2434 52.3955 54.6123 36.4754 54.6123 29.0191C54.6123 23.981 52.5971 22.1673 48.3651 22.1673Z" fill="#222222"/>
</svg>
